<?xml version="1.0" encoding="UTF-8"?>
<svg id="Layer_1" xmlns="http://www.w3.org/2000/svg" version="1.1" viewBox="0 0 152 152">
  <!-- Generator: Adobe Illustrator 29.8.1, SVG Export Plug-In . SVG Version: 2.1.1 Build 2)  -->
  <defs>
    <style>
      .st0 {
        fill: #f6821f;
      }
    </style>
  </defs>
  <path class="st0" d="M75.51,98.84l7.68,7.68,28.48-28.48-28.48-28.46-7.68,7.68,15.37,15.34H9.58v10.86h81.3l-15.37,15.37Z"/>
  <path class="st0" d="M132.91,26.15l-3.72-.52c-15.73-2.32-30.33-9.53-41.73-20.61l-3.23-3.64h-8.15l-3.15,3.64c-11.37,11.08-25.95,18.29-41.65,20.61l-3.72.52-4.67,5.43v30.47h10.86v-25.8c17.45-2.81,33.63-10.86,46.4-23.08,12.82,12.24,29.06,20.29,46.57,23.08v33.67c0,44.42-41.14,67.42-46.57,70.19-4.15-2.04-31.01-17.16-41.9-45.48h-11.51c11.97,36.47,47.3,54.55,49.09,55.45l1.93.98h4.86l1.93-.98c2.17-1.06,53.03-27.15,53.03-80.16V31.53l-4.67-5.38Z"/>
</svg>